<svg width="189" height="40" viewBox="0 0 189 40" fill="none" xmlns="http://www.w3.org/2000/svg">
<circle cx="20" cy="20" r="20" fill="#E78786"/>
<path d="M15.536 16.08V17.676H12.956V24H10.892V17.676H8.3V16.08H15.536ZM20.0758 16.08C21.3158 16.08 22.2638 16.424 22.9198 17.112C23.5838 17.8 23.9158 18.776 23.9158 20.04C23.9158 21.304 23.5838 22.28 22.9198 22.968C22.2638 23.656 21.3158 24 20.0758 24H16.7158V16.08H20.0758ZM19.8718 22.44C20.5438 22.44 21.0318 22.24 21.3358 21.84C21.6478 21.432 21.8038 20.832 21.8038 20.04C21.8038 19.248 21.6478 18.652 21.3358 18.252C21.0318 17.844 20.5438 17.64 19.8718 17.64H18.7798V22.44H19.8718ZM25.3291 24V16.08H31.4971V17.676H27.3931V19.284H30.6571V20.784H27.3931V22.404H31.6531V24H25.3291Z" fill="white"/>
<path d="M65.048 15.44V17.568H61.608V26H58.856V17.568H55.4V15.44H65.048ZM68.7684 17.84C69.611 17.84 70.347 18.0053 70.9764 18.336C71.6164 18.656 72.1124 19.1307 72.4644 19.76C72.827 20.3787 73.0084 21.1253 73.0084 22C73.0084 22.8747 72.827 23.6267 72.4644 24.256C72.1124 24.8747 71.6164 25.3493 70.9764 25.68C70.347 26 69.611 26.16 68.7684 26.16C67.947 26.16 67.2164 26 66.5764 25.68C65.9364 25.3493 65.435 24.8747 65.0724 24.256C64.7204 23.6267 64.5444 22.8747 64.5444 22C64.5444 21.1253 64.7204 20.3787 65.0724 19.76C65.435 19.1307 65.9364 18.656 66.5764 18.336C67.2164 18.0053 67.947 17.84 68.7684 17.84ZM68.7684 19.776C68.459 19.776 68.1924 19.8507 67.9684 20C67.7444 20.1493 67.5737 20.3893 67.4564 20.72C67.339 21.0507 67.2804 21.4773 67.2804 22C67.2804 22.5227 67.339 22.9493 67.4564 23.28C67.5737 23.6 67.7444 23.84 67.9684 24C68.1924 24.1493 68.459 24.224 68.7684 24.224C69.0884 24.224 69.3604 24.1493 69.5844 24C69.8084 23.84 69.979 23.6 70.0964 23.28C70.2137 22.9493 70.2724 22.5227 70.2724 22C70.2724 21.4773 70.2137 21.0507 70.0964 20.72C69.979 20.3893 69.8084 20.1493 69.5844 20C69.3604 19.8507 69.0884 19.776 68.7684 19.776ZM83.7886 15.44C85.442 15.44 86.706 15.8987 87.5806 16.816C88.466 17.7333 88.9086 19.0347 88.9086 20.72C88.9086 22.4053 88.466 23.7067 87.5806 24.624C86.706 25.5413 85.442 26 83.7886 26H79.3086V15.44H83.7886ZM83.5166 23.92C84.4126 23.92 85.0633 23.6533 85.4686 23.12C85.8846 22.576 86.0926 21.776 86.0926 20.72C86.0926 19.664 85.8846 18.8693 85.4686 18.336C85.0633 17.792 84.4126 17.52 83.5166 17.52H82.0606V23.92H83.5166ZM94.409 17.84C95.2517 17.84 95.9877 18.0053 96.617 18.336C97.257 18.656 97.753 19.1307 98.105 19.76C98.4677 20.3787 98.649 21.1253 98.649 22C98.649 22.8747 98.4677 23.6267 98.105 24.256C97.753 24.8747 97.257 25.3493 96.617 25.68C95.9877 26 95.2517 26.16 94.409 26.16C93.5877 26.16 92.857 26 92.217 25.68C91.577 25.3493 91.0757 24.8747 90.713 24.256C90.361 23.6267 90.185 22.8747 90.185 22C90.185 21.1253 90.361 20.3787 90.713 19.76C91.0757 19.1307 91.577 18.656 92.217 18.336C92.857 18.0053 93.5877 17.84 94.409 17.84ZM94.409 19.776C94.0997 19.776 93.833 19.8507 93.609 20C93.385 20.1493 93.2143 20.3893 93.097 20.72C92.9797 21.0507 92.921 21.4773 92.921 22C92.921 22.5227 92.9797 22.9493 93.097 23.28C93.2143 23.6 93.385 23.84 93.609 24C93.833 24.1493 94.0997 24.224 94.409 24.224C94.729 24.224 95.001 24.1493 95.225 24C95.449 23.84 95.6197 23.6 95.737 23.28C95.8543 22.9493 95.913 22.5227 95.913 22C95.913 21.4773 95.8543 21.0507 95.737 20.72C95.6197 20.3893 95.449 20.1493 95.225 20C95.001 19.8507 94.729 19.776 94.409 19.776ZM104.949 26V15.44H113.173V17.568H107.701V19.712H112.053V21.712H107.701V23.872H113.381V26H104.949ZM119.848 18H122.664L119.784 26H116.536L113.656 18H116.52L118.168 24.096L119.848 18ZM127.38 26.16C126.495 26.16 125.727 25.9947 125.076 25.664C124.436 25.3333 123.94 24.8587 123.588 24.24C123.236 23.6213 123.06 22.8747 123.06 22C123.06 21.1253 123.236 20.3787 123.588 19.76C123.94 19.1413 124.431 18.6667 125.06 18.336C125.7 18.0053 126.431 17.84 127.252 17.84C128.095 17.84 128.809 18.0053 129.396 18.336C129.993 18.656 130.447 19.104 130.756 19.68C131.065 20.2453 131.22 20.896 131.22 21.632C131.22 21.824 131.215 22.016 131.204 22.208C131.193 22.4 131.177 22.56 131.156 22.688H124.82V21.232H129.956L128.66 21.728C128.66 21.088 128.543 20.5973 128.308 20.256C128.084 19.9147 127.732 19.744 127.252 19.744C126.911 19.744 126.617 19.824 126.372 19.984C126.137 20.144 125.956 20.3947 125.828 20.736C125.711 21.0773 125.652 21.5147 125.652 22.048C125.652 22.5707 125.721 22.9973 125.86 23.328C125.999 23.648 126.196 23.8827 126.452 24.032C126.708 24.1707 127.017 24.24 127.38 24.24C127.785 24.24 128.105 24.16 128.34 24C128.585 23.84 128.767 23.616 128.884 23.328L131.06 24.048C130.911 24.5067 130.649 24.896 130.276 25.216C129.913 25.5253 129.476 25.76 128.964 25.92C128.463 26.08 127.935 26.16 127.38 26.16ZM132.742 26V18H135.142L135.254 19.728C135.456 19.1307 135.755 18.6667 136.15 18.336C136.555 18.0053 137.067 17.84 137.686 17.84C137.888 17.84 138.059 17.856 138.198 17.888C138.347 17.92 138.464 17.9627 138.55 18.016L138.278 20.256C138.171 20.2133 138.032 20.1813 137.862 20.16C137.702 20.128 137.504 20.112 137.27 20.112C136.95 20.112 136.651 20.1813 136.374 20.32C136.096 20.4587 135.872 20.6667 135.702 20.944C135.542 21.2107 135.462 21.552 135.462 21.968V26H132.742ZM147.665 18L144.753 26C144.454 26.8427 144.129 27.5147 143.777 28.016C143.425 28.5173 143.009 28.88 142.529 29.104C142.049 29.328 141.473 29.44 140.801 29.44C140.353 29.44 139.942 29.392 139.569 29.296C139.195 29.2 138.87 29.0667 138.593 28.896L139.137 27.056C139.329 27.1947 139.531 27.2907 139.745 27.344C139.958 27.408 140.23 27.44 140.561 27.44C140.87 27.44 141.121 27.3867 141.313 27.28C141.515 27.1733 141.675 26.9707 141.793 26.672L142.001 26.176L141.073 24L138.673 18H141.665L142.897 22.56L143.281 24.256L143.729 22.496L144.961 18H147.665ZM151.976 15.456V23.152C151.976 23.536 152.067 23.8133 152.248 23.984C152.44 24.144 152.702 24.224 153.032 24.224C153.288 24.224 153.507 24.1973 153.688 24.144C153.88 24.08 154.051 23.9893 154.2 23.872L154.488 25.552C154.222 25.744 153.886 25.8933 153.48 26C153.075 26.1067 152.659 26.16 152.232 26.16C151.624 26.16 151.096 26.0747 150.648 25.904C150.211 25.7333 149.87 25.4613 149.624 25.088C149.39 24.7147 149.267 24.2187 149.256 23.6V16.208L151.976 15.456ZM154.36 18V19.936H147.88V18H154.36ZM155.804 26V14.608H158.524V19.456C158.759 18.9227 159.095 18.5227 159.532 18.256C159.969 17.9787 160.476 17.84 161.052 17.84C161.607 17.84 162.087 17.9467 162.492 18.16C162.908 18.3733 163.233 18.688 163.468 19.104C163.703 19.52 163.82 20.0427 163.82 20.672V26H161.1V21.424C161.1 20.848 160.993 20.4533 160.78 20.24C160.577 20.016 160.305 19.904 159.964 19.904C159.708 19.904 159.468 19.968 159.244 20.096C159.02 20.224 158.844 20.4267 158.716 20.704C158.588 20.9813 158.524 21.344 158.524 21.792V26H155.804ZM167.086 17.072C166.531 17.072 166.126 16.9707 165.87 16.768C165.625 16.5547 165.502 16.224 165.502 15.776C165.502 15.3173 165.625 14.9867 165.87 14.784C166.126 14.5707 166.531 14.464 167.086 14.464C167.63 14.464 168.03 14.5707 168.286 14.784C168.542 14.9867 168.67 15.3173 168.67 15.776C168.67 16.224 168.542 16.5547 168.286 16.768C168.03 16.9707 167.63 17.072 167.086 17.072ZM168.446 18V26H165.726V18H168.446ZM170.382 26V18H172.814L172.958 20.752L172.654 20.448C172.761 19.872 172.948 19.392 173.214 19.008C173.492 18.624 173.833 18.336 174.238 18.144C174.654 17.9413 175.118 17.84 175.63 17.84C176.185 17.84 176.665 17.9467 177.07 18.16C177.486 18.3733 177.812 18.688 178.046 19.104C178.281 19.52 178.398 20.0427 178.398 20.672V26H175.678V21.392C175.678 20.8373 175.572 20.4533 175.358 20.24C175.145 20.0267 174.873 19.92 174.542 19.92C174.286 19.92 174.046 19.984 173.822 20.112C173.598 20.2293 173.422 20.4213 173.294 20.688C173.166 20.9547 173.102 21.312 173.102 21.76V26H170.382ZM188.048 15.856L188.272 17.68C188.208 17.6587 188.144 17.648 188.08 17.648C188.016 17.6373 187.952 17.632 187.888 17.632C187.419 17.632 187.067 17.7493 186.832 17.984C186.608 18.208 186.496 18.4907 186.496 18.832L185.536 18.48C185.536 18.0427 185.616 17.6213 185.776 17.216C185.936 16.8107 186.181 16.48 186.512 16.224C186.853 15.968 187.28 15.84 187.792 15.84C187.824 15.84 187.861 15.84 187.904 15.84C187.957 15.84 188.005 15.8453 188.048 15.856ZM185.296 24.224C186.224 24.224 186.933 24.4213 187.424 24.816C187.925 25.2 188.176 25.7547 188.176 26.48C188.176 27.1413 187.995 27.6907 187.632 28.128C187.269 28.5653 186.757 28.8907 186.096 29.104C185.445 29.328 184.672 29.44 183.776 29.44C182.325 29.44 181.28 29.2587 180.64 28.896C180 28.5333 179.68 28.0427 179.68 27.424C179.68 26.976 179.861 26.6133 180.224 26.336C180.587 26.0587 181.189 25.9093 182.032 25.888L181.968 26.144C181.317 26.0587 180.832 25.8667 180.512 25.568C180.192 25.2693 180.032 24.864 180.032 24.352C180.032 23.84 180.235 23.424 180.64 23.104C181.045 22.784 181.584 22.608 182.256 22.576L183.248 23.04H182.992C182.576 23.0613 182.283 23.1307 182.112 23.248C181.941 23.3653 181.856 23.5093 181.856 23.68C181.856 23.8613 181.931 24 182.08 24.096C182.229 24.1813 182.453 24.224 182.752 24.224H185.296ZM183.792 27.68C184.304 27.68 184.725 27.6427 185.056 27.568C185.397 27.504 185.653 27.408 185.824 27.28C185.995 27.1627 186.08 27.024 186.08 26.864C186.08 26.704 186.021 26.576 185.904 26.48C185.787 26.3947 185.573 26.352 185.264 26.352H182.4C182.197 26.352 182.032 26.4053 181.904 26.512C181.787 26.6187 181.728 26.752 181.728 26.912C181.728 27.1573 181.909 27.344 182.272 27.472C182.635 27.6107 183.141 27.68 183.792 27.68ZM183.888 17.84C184.699 17.84 185.392 17.9467 185.968 18.16C186.544 18.3733 186.981 18.6827 187.28 19.088C187.589 19.4827 187.744 19.9733 187.744 20.56C187.744 21.136 187.589 21.6267 187.28 22.032C186.981 22.4373 186.544 22.7467 185.968 22.96C185.392 23.1627 184.699 23.264 183.888 23.264C182.619 23.264 181.653 23.0293 180.992 22.56C180.341 22.0907 180.016 21.424 180.016 20.56C180.016 19.9733 180.165 19.4827 180.464 19.088C180.773 18.6827 181.216 18.3733 181.792 18.16C182.368 17.9467 183.067 17.84 183.888 17.84ZM183.888 19.392C183.536 19.392 183.248 19.4933 183.024 19.696C182.811 19.8987 182.704 20.1867 182.704 20.56C182.704 20.9227 182.811 21.2053 183.024 21.408C183.248 21.6107 183.536 21.712 183.888 21.712C184.229 21.712 184.512 21.6107 184.736 21.408C184.96 21.2053 185.072 20.9227 185.072 20.56C185.072 20.1867 184.96 19.8987 184.736 19.696C184.512 19.4933 184.229 19.392 183.888 19.392Z" fill="black"/>
</svg>
