<svg width="40" height="40" viewBox="0 0 40 40" fill="none" xmlns="http://www.w3.org/2000/svg">
<circle cx="20" cy="20" r="20" fill="#E78786"/>
<path d="M15.536 16.08V17.676H12.956V24H10.892V17.676H8.3V16.08H15.536ZM20.0758 16.08C21.3158 16.08 22.2638 16.424 22.9198 17.112C23.5838 17.8 23.9158 18.776 23.9158 20.04C23.9158 21.304 23.5838 22.28 22.9198 22.968C22.2638 23.656 21.3158 24 20.0758 24H16.7158V16.08H20.0758ZM19.8718 22.44C20.5438 22.44 21.0318 22.24 21.3358 21.84C21.6478 21.432 21.8038 20.832 21.8038 20.04C21.8038 19.248 21.6478 18.652 21.3358 18.252C21.0318 17.844 20.5438 17.64 19.8718 17.64H18.7798V22.44H19.8718ZM25.3291 24V16.08H31.4971V17.676H27.3931V19.284H30.6571V20.784H27.3931V22.404H31.6531V24H25.3291Z" fill="white"/>
</svg>
